<mxfile>
    <diagram id="KMjTLUn4GlAnN2dVCgm0" name="Page-1">
        <mxGraphModel dx="502" dy="522" grid="1" gridSize="10" guides="1" tooltips="1" connect="1" arrows="1" fold="1" page="1" pageScale="1" pageWidth="827" pageHeight="1169" background="#F9FF57" math="0" shadow="1">
            <root>
                <mxCell id="0"/>
                <mxCell id="1" parent="0"/>
                <mxCell id="13" value="" style="shape=datastore;whiteSpace=wrap;html=1;" vertex="1" parent="1">
                    <mxGeometry x="290" y="120" width="130" height="150" as="geometry"/>
                </mxCell>
                <mxCell id="14" value="" style="shape=singleArrow;direction=west;whiteSpace=wrap;html=1;" vertex="1" parent="1">
                    <mxGeometry x="180" y="165" width="100" height="60" as="geometry"/>
                </mxCell>
                <mxCell id="15" value="" style="html=1;verticalLabelPosition=bottom;align=center;labelBackgroundColor=#ffffff;verticalAlign=top;strokeWidth=2;strokeColor=#0080F0;shadow=0;dashed=0;shape=mxgraph.ios7.icons.folder;fontFamily=Helvetica;fontSize=12;fontColor=#f0f0f0;fillColor=#2a2a2a;" vertex="1" parent="1">
                    <mxGeometry x="60" y="160" width="110" height="110" as="geometry"/>
                </mxCell>
            </root>
        </mxGraphModel>
    </diagram>
</mxfile>